<?xml version="1.0" encoding="utf-8"?>
<!-- Generator: Adobe Illustrator 19.1.0, SVG Export Plug-In . SVG Version: 6.00 Build 0)  -->
<svg version="1.1" xmlns="http://www.w3.org/2000/svg" xmlns:xlink="http://www.w3.org/1999/xlink" x="0px" y="0px"
	 viewBox="0 0 1024 250" style="enable-background:new 0 0 1024 250;" xml:space="preserve">
<style type="text/css">
	.st0{fill:#008AC2;}
	.st1{fill:#013444;}
	.st2{clip-path:url(#SVGID_2_);}
	.st3{fill:#FFFFFF;}
	.st4{fill:#221E1F;}
	.st5{fill:#F8A31F;}
	.st6{fill:none;stroke:#42291B;stroke-width:1.25;}
	.st7{fill:none;stroke:#42291B;stroke-width:5.05;}
	.st8{fill:#604B44;}
	.st9{fill:none;stroke:#42291B;stroke-width:0.985;}
	.st10{fill:#42291B;}
	.st11{fill:#040F1D;}
	.st12{fill:#114878;}
	.st13{font-family:'Belgrano-Regular';}
	.st14{font-size:106.4879px;}
	.st15{letter-spacing:-6;}
	.st16{fill:#FFFFFF;stroke:#FFFFFF;stroke-miterlimit:10;}
	.st17{fill:none;stroke:#FFFFFF;stroke-miterlimit:10;}
	.st18{fill:#FBA500;}
	.st19{clip-path:url(#SVGID_4_);}
	.st20{fill:#595959;}
	.st21{clip-path:url(#SVGID_6_);}
	.st22{clip-path:url(#SVGID_8_);}
	.st23{clip-path:url(#SVGID_10_);}
	.st24{clip-path:url(#SVGID_12_);}
	.st25{clip-path:url(#SVGID_14_);}
	.st26{clip-path:url(#SVGID_16_);}
	.st27{clip-path:url(#SVGID_18_);}
	.st28{clip-path:url(#SVGID_20_);}
	.st29{clip-path:url(#SVGID_22_);}
	.st30{clip-path:url(#SVGID_24_);}
	.st31{clip-path:url(#SVGID_26_);}
	.st32{clip-path:url(#SVGID_28_);}
	.st33{clip-path:url(#SVGID_30_);}
	.st34{clip-path:url(#SVGID_32_);}
	.st35{clip-path:url(#XMLID_14_);}
	.st36{fill:#D1D3D4;stroke:#595959;stroke-width:9;stroke-miterlimit:10;}
	.st37{fill:#9FC9EB;}
	.st38{fill:#A7C44D;}
	.st39{clip-path:url(#XMLID_15_);}
	.st40{fill:#595959;stroke:#E7DB41;stroke-width:40;stroke-linecap:square;stroke-miterlimit:10;}
	.st41{fill:none;stroke:#E7DB41;stroke-width:40;stroke-linecap:square;stroke-miterlimit:10;}
	.st42{fill-rule:evenodd;clip-rule:evenodd;fill:#E7DB41;stroke:#E7DB41;stroke-width:14;stroke-miterlimit:10;}
	.st43{clip-path:url(#XMLID_16_);}
	.st44{fill:#969696;stroke:#231F20;stroke-width:12;stroke-miterlimit:10;}
	.st45{fill:none;stroke:#231F20;stroke-width:12;stroke-miterlimit:10;}
	.st46{fill:#595959;stroke:#595959;stroke-miterlimit:10;}
	.st47{clip-path:url(#XMLID_17_);}
	.st48{clip-path:url(#XMLID_18_);}
	.st49{fill:none;stroke:#595959;stroke-width:40;stroke-miterlimit:10;}
	.st50{clip-path:url(#XMLID_19_);fill:none;stroke:#D9689B;stroke-width:40;stroke-miterlimit:10;}
	.st51{clip-path:url(#XMLID_19_);}
	.st52{fill:#D9689B;}
	.st53{clip-path:url(#XMLID_20_);}
	.st54{fill:#D3EB8C;}
	.st55{clip-path:url(#XMLID_20_);fill:#D3EB8C;}
	.st56{clip-path:url(#XMLID_21_);}
	.st57{fill:#591777;}
	.st58{clip-path:url(#XMLID_22_);}
	.st59{fill:#969696;stroke:#333333;stroke-width:20;stroke-miterlimit:10;}
	.st60{clip-path:url(#XMLID_23_);}
	.st61{fill:#33669A;}
	.st62{clip-path:url(#SVGID_34_);fill:#33669A;}
	.st63{clip-path:url(#XMLID_24_);}
	.st64{fill-rule:evenodd;clip-rule:evenodd;fill:none;stroke:#9B601D;stroke-width:5;stroke-miterlimit:10;}
	.st65{fill-rule:evenodd;clip-rule:evenodd;fill:#9B601D;stroke:#9B601D;stroke-width:5;stroke-miterlimit:10;}
	
		.st66{clip-path:url(#XMLID_25_);fill-rule:evenodd;clip-rule:evenodd;fill:#9FC9EB;stroke:#9FC9EB;stroke-width:9;stroke-miterlimit:10;}
</style>
<g id="Layer_28">
	<g>
		<defs>
			<path id="SVGID_1_" d="M1062-125.9H44c-1.7,0-3-1.3-3-3v-244c0-1.6,1.3-3,3-3h1018c1.7,0,3,1.4,3,3v244
				C1065-127.2,1063.7-125.9,1062-125.9z"/>
		</defs>
		<clipPath id="SVGID_2_">
			<use xlink:href="#SVGID_1_"  style="overflow:visible;"/>
		</clipPath>
		<g id="layer1_15_" class="st2">
			<path id="path3937_15_" class="st3" d="M366.9-226.4c-3-16.4-15.2-27.1-25-33.2c-3.8-2.4-7.4-4.2-10-5.4
				c-0.7-7.5-3.3-23.6-13.4-42.4c-7.2-13.4-28.5-31.5-34.8-36.7c-0.8-4-12.4-59.1-12.4-59.1s-0.4,0.4-0.4,0.4c0-0.1-0.2-0.8-0.2-0.8
				s-38.1,34.3-40.4,36.3c-2.5,0.6-15.4,3.5-17,3.8c-7.2-0.8-13.8-1.2-20.1-1.1c-16.8,0.2-33,3.9-39.5,5.6
				c-4.4-3.1-51.9-36.1-51.9-36.1c0,0.1-0.5-0.3-0.5-0.3l-11-7.8c0,0,7.2,88.8,7.6,93.4c-6.7,8.7-27.6,38.7-27.6,72.6
				c0,12.1,2.7,24.8,9.7,37.1c9.3,16.4,22.3,30.2,38.7,41.2c-9,2.8-16.6,9-24.5,15.6l-8.1,6.5c-1.9,1.5-4.1,2.8-6.4,4.2
				c-7.1,4.4-16.4,10.2-16.4,22.1c0,2,0.3,4.1,0.8,6.5c0.7,2.8,2.2,8.5,4.8,15.2c-6.8-2.7-12.7-6.5-17.7-11.3
				c-8.5-8.3-14.8-18.7-20.2-28c-4.4-7.5-8.3-14-12.8-18.5c-7.8-7.6-15.4-6.3-20.3-3.8c-8.8,4.4-14.2,16.4-14.2,31.2
				c0,1.1,0,2.1,0.1,3.2c1.1,21.6,14.3,49.2,48,61.7c8.5,3.2,16.7,5,24.5,6.1c-3.9,1.3-7.3,2.3-9.5,3c-4.8-2.5-15.1-6.1-26.3,0.6
				C11-38.7,10-25.1,17.8-7c9.4,21.8,32.9,51.5,53,45.8c9.2-2.6,15.1-7.3,17.6-14c0.9-2.4,1.3-4.8,1.3-7.3c0-8.3-4.4-16.7-8.2-23
				c27.8-8.1,55.1-23.9,65.2-30c7,6.8,13.8,13.7,20.3,20.6c20.2,21.5,49.9,47.3,51.1,48.4l1.4,1.2l1.8,0.3
				c1.2,0.2,29.6,4.5,53.8,5.4c25.6,1,36.3-1.8,38.3-10.2c2.4-10,0.9-18.5-4.2-25.3c-7.3-9.6-21.5-14.8-42.2-15.7
				c-8.8-0.4-16.6,0.2-20.6,0.6c-12-11-21.2-19.6-26.1-24.2c-5.6-5.3-14.6-14.5-26.6-27.1c4.3-4,8.8-9.4,14.5-17.2
				c1.1-1.6,2.3-3.4,3.6-5.6c2.7,2,7.1,5.8,13.4,12.6c7.9,8.5,16,12.5,24.7,12.4c7.3-0.1,14-3.2,20.5-6.1l0.6-0.3
				c8.2-3.7,34.8-17.1,37.8-34.3c0.8-4.4,0.3-11.1-6.2-17.5c-5.1-4.9-10.2-7.6-15.5-8.1c-8.5-0.8-15.5,4.2-21.7,8.7
				c-4,2.9-7.8,5.6-11.7,6.8c-1.2,0.4-2.4,0.6-3.4,0.6c-4.9,0-8.5-4.5-13.5-11.4c-1.8-2.5-3.6-5.1-5.7-7.2c-1.1-1.1-2.1-2.2-3.2-3.2
				c11.6-0.4,23.4-1.5,35.3-3.3c54.2-8.8,79.9-30.9,92-47.9c8.2-11.5,12.5-24.3,12.5-36C367.6-221.2,367.4-223.8,366.9-226.4"/>
			<path id="path3941_15_" class="st4" d="M366.9-226.4c-3-16.4-15.2-27.1-25-33.2c-3.8-2.4-7.4-4.2-10-5.4
				c-0.7-7.5-3.3-23.6-13.4-42.4c-7.2-13.4-28.5-31.5-34.8-36.7c-0.8-4-12.4-59.1-12.4-59.1s-0.4,0.4-0.4,0.4c0-0.1-0.2-0.8-0.2-0.8
				s-38.1,34.3-40.4,36.3c-2.5,0.6-15.4,3.5-17,3.8c-7.2-0.8-13.8-1.2-20.1-1.1c-16.8,0.2-33,3.9-39.5,5.6
				c-4.4-3.1-51.9-36.1-51.9-36.1c0,0.1-0.5-0.3-0.5-0.3l-11-7.8c0,0,7.2,88.8,7.6,93.4c-6.7,8.7-27.6,38.7-27.6,72.6
				c0,12.1,2.7,24.8,9.7,37.1c9.3,16.4,22.3,30.2,38.7,41.2c-9,2.8-16.6,9-24.5,15.6l-8.1,6.5c-1.9,1.5-4.1,2.8-6.4,4.2
				c-7.1,4.4-16.4,10.2-16.4,22.1c0,2,0.3,4.1,0.8,6.5c0.7,2.8,2.2,8.5,4.8,15.2c-6.8-2.7-12.7-6.5-17.7-11.3
				c-8.5-8.3-14.8-18.7-20.2-28c-4.4-7.5-8.3-14-12.8-18.5c-7.8-7.6-15.4-6.3-20.3-3.8c-8.8,4.4-14.2,16.4-14.2,31.2
				c0,1.1,0,2.1,0.1,3.2c1.1,21.6,14.3,49.2,48,61.7c8.5,3.2,16.7,5,24.5,6.1c-3.9,1.3-7.3,2.3-9.5,3c-4.8-2.5-15.1-6.1-26.3,0.6
				C11-38.7,10-25.1,17.8-7c9.4,21.8,32.9,51.5,53,45.8c9.2-2.6,15.1-7.3,17.6-14c0.9-2.4,1.3-4.8,1.3-7.3c0-8.3-4.4-16.7-8.2-23
				c27.8-8.1,55.1-23.9,65.2-30c7,6.8,13.8,13.7,20.3,20.6c20.2,21.5,49.9,47.3,51.1,48.4l1.4,1.2l1.8,0.3
				c1.2,0.2,29.6,4.5,53.8,5.4c25.6,1,36.3-1.8,38.3-10.2c2.4-10,0.9-18.5-4.2-25.3c-7.3-9.6-21.5-14.8-42.2-15.7
				c-8.8-0.4-16.6,0.2-20.6,0.6c-12-11-21.2-19.6-26.1-24.2c-5.6-5.3-14.6-14.5-26.6-27.1c4.3-4,8.8-9.4,14.5-17.2
				c1.1-1.6,2.3-3.4,3.6-5.6c2.7,2,7.1,5.8,13.4,12.6c7.9,8.5,16,12.5,24.7,12.4c7.3-0.1,14-3.2,20.5-6.1l0.6-0.3
				c8.2-3.7,34.8-17.1,37.8-34.3c0.8-4.4,0.3-11.1-6.2-17.5c-5.1-4.9-10.2-7.6-15.5-8.1c-8.5-0.8-15.5,4.2-21.7,8.7
				c-4,2.9-7.8,5.6-11.7,6.8c-1.2,0.4-2.4,0.6-3.4,0.6c-4.9,0-8.5-4.5-13.5-11.4c-1.8-2.5-3.6-5.1-5.7-7.2c-1.1-1.1-2.1-2.2-3.2-3.2
				c11.6-0.4,23.4-1.5,35.3-3.3c54.2-8.8,79.9-30.9,92-47.9c8.2-11.5,12.5-24.3,12.5-36C367.6-221.2,367.4-223.8,366.9-226.4"/>
			<path id="path3945_15_" class="st5" d="M262.1-140.8c82-13.2,103.1-59.5,98.7-84.5c-4.5-25-34.9-35.3-34.9-35.3
				s0.3-19.5-12.9-43.8c-7.8-14.5-35-36.2-35-36.2l-10.6-50.6l-33.5,30.1l-18.8,4.2c-6.7-0.9-14.2-1.5-21.9-1.4
				c-20.6,0.2-40.7,6.1-40.7,6.1l-54.3-37.7l6.7,82.5c3-3.3-47.8,53.9-18.9,104.6c13.6,23.8,35.2,41.7,62.6,52.8l-2,1.7
				c-1.5-1.1-3.4-2.2-5.8-3.2c-21.6-8.6-32.9,5.8-50.8,19.7c-9.7,7.5-23.5,10.9-19.7,26.3c1.5,6,4.7,16.3,9.9,25.9l-0.6,0.3
				c-10.4-2-22.6-6.5-32.8-16.3C24-117.8,17.7-153.2,0.6-144.8c-17.1,8.5-18.8,65.3,33.3,84.7c17.9,6.7,34.5,7.3,47.9,7.5l0-0.4
				L93-58.3c-2.9,1.8-7.3,4.3-13.5,7.3l-15.3,5.8l-0.5,1.1c-9.1,3.4-17.9,5.8-17.9,5.8s-10.5-7.8-22.1-0.8
				C4.6-27.6,45.7,39.4,69.1,32.8c28.4-8,6.5-35.1,2.4-42.1c36.2-8.2,75.7-33.9,75.7-33.9l-0.6,0.2l0.9-0.5
				c7,6.7,15.3,14.9,24.1,24.3c20.2,21.5,50.6,47.9,50.6,47.9s82.1,12.5,85,0c9.9-42.2-63.1-32.3-63.1-32.3s-19.4-17.8-28.3-26.2
				c-7.9-7.5-20.9-21.1-31.2-32.1l0.8-1c5.2-3.8,10.6-10,17.5-19.6c2.3-3.2,4.7-7.4,6.8-11.5l0,1.2c0,0,5.3,0.9,20,16.7
				c14.7,15.8,25.9,10.3,38.6,4.5C281-77.2,315-96.3,298-113c-17-16.7-27.2,4-42.6,8.9c-15.4,4.9-21.6-11.6-29.1-19.7
				c-6.4-7-13.2-11.3-15.1-12.4l0.2-1.3C227.4-136.9,244.3-137.9,262.1-140.8"/>
			<path id="path4021_15_" class="st6" d="M169.1-78.3c0,0,32,34.7,46.6,48.5C224.7-21.3,244-3.5,244-3.5s73-9.9,63.1,32.3
				c-2.9,12.5-84.9,0-84.9,0s-30.4-26.5-50.6-47.9c-24.6-26.1-45.3-43.6-45.3-43.6"/>
			<path id="path4025_15_" class="st9" d="M70.9-10.8c-0.1,2.9,29.4,34.7-1.8,43.5C45.6,39.4,4.6-27.6,23.7-39.1
				c11.7-7,22.2,0.8,22.2,0.8s15.3-4.1,26.4-9.2c19-8.7,25.6-14.1,25.6-14.1"/>
		</g>
	</g>
</g>
<g id="Layer_29">
	<g>
		<path class="st11" d="M3,249.5c-1.4,0-2.5-1.1-2.5-2.5V3c0-1.4,1.1-2.5,2.5-2.5h1018c1.4,0,2.5,1.1,2.5,2.5v244
			c0,1.4-1.1,2.5-2.5,2.5H3z"/>
		<path class="st12" d="M1021,1c1.1,0,2,0.9,2,2v244c0,1.1-0.9,2-2,2H3c-1.1,0-2-0.9-2-2V3c0-1.1,0.9-2,2-2H1021 M1021,0H3
			C1.4,0,0,1.3,0,3v244c0,1.6,1.4,3,3,3h1018c1.6,0,3-1.4,3-3V3C1024,1.3,1022.6,0,1021,0L1021,0z"/>
	</g>
	<g>
		<text transform="matrix(1 0 0 1 51.4099 109.895)" class="st3 st13 st14 st15">Processing</text>
		<text transform="matrix(1 0 0 1 51.4099 201.2283)" class="st3 st13 st14 st15">Challenges</text>
	</g>
	<line class="st16" x1="658.1" y1="33.7" x2="784.7" y2="117.7"/>
	<line class="st17" x1="658.1" y1="33.7" x2="558.4" y2="9.4"/>
	<line class="st17" x1="784.7" y1="162.4" x2="1024" y2="247"/>
	<line class="st17" x1="770.1" y1="206.2" x2="1024" y2="247"/>
	<line class="st17" x1="784.7" y1="117.7" x2="1024" y2="247"/>
	<line class="st17" x1="896.7" y1="64" x2="1024" y2="247"/>
	<line class="st17" x1="555.1" y1="151.9" x2="658.1" y2="33.7"/>
	<line class="st17" x1="770.1" y1="206.2" x2="658.1" y2="33.7"/>
	<line class="st17" x1="784.7" y1="162.4" x2="674.4" y2="204.7"/>
	<line class="st17" x1="884.7" y1="171.7" x2="896.7" y2="64"/>
	<line class="st17" x1="896.7" y1="64" x2="736.5" y2="85.7"/>
	<line class="st17" x1="57.3" y1="105.9" x2="4" y2="4"/>
	<line class="st17" x1="66.5" y1="102.2" x2="4" y2="4"/>
	<line class="st17" x1="66.5" y1="42.6" x2="4" y2="4"/>
	<line class="st17" x1="56.9" y1="35.3" x2="4" y2="4"/>
	<line class="st17" x1="57.3" y1="109.7" x2="4" y2="4"/>
	<line class="st17" x1="784.7" y1="3" x2="831.3" y2="72.9"/>
	<line class="st17" x1="831.3" y1="72.9" x2="635.4" y2="3"/>
	<line class="st17" x1="674.4" y1="204.7" x2="606.6" y2="92.8"/>
	<line class="st17" x1="674.4" y1="204.7" x2="661.4" y2="250"/>
	<line class="st17" x1="896.7" y1="64" x2="938.1" y2="0"/>
	<line class="st17" x1="938.1" y1="0" x2="1024" y2="42.4"/>
	<line class="st17" x1="938.1" y1="0" x2="1024" y2="247"/>
	<line class="st17" x1="558.4" y1="9.4" x2="674.4" y2="204.7"/>
	<line class="st17" x1="555.1" y1="151.9" x2="661.4" y2="250"/>
	<g>
		<path class="st1" d="M1020,4v242H4V4H1020 M1021,0H3C1.4,0,0,1.3,0,3v244c0,1.6,1.4,3,3,3h1018c1.6,0,3-1.4,3-3V3
			C1024,1.3,1022.6,0,1021,0L1021,0z"/>
	</g>
</g>
<g id="Layer_18">
</g>
<g id="Layer_27">
</g>
<g id="Layer_19">
</g>
<g id="Layer_20">
</g>
<g id="Layer_21">
</g>
<g id="Layer_22">
</g>
<g id="Layer_23">
</g>
<g id="Layer_24">
</g>
<g id="Layer_25">
</g>
<g id="Layer_26">
</g>
<g id="Layer_17">
</g>
<g id="Layer_16">
</g>
<g id="Layer_15">
</g>
<g id="Layer_14">
</g>
<g id="Layer_13">
</g>
<g id="Layer_12">
</g>
<g id="Layer_11">
</g>
<g id="Layer_10">
</g>
<g id="Layer_8">
</g>
<g id="Layer_9">
</g>
<g id="Layer_7">
</g>
<g id="Layer_6">
</g>
<g id="Layer_5">
</g>
<g id="Layer_4">
</g>
<g id="Layer_3">
</g>
<g id="Layer_2">
</g>
<g id="Layer_1">
</g>
</svg>
