<svg xmlns="http://www.w3.org/2000/svg" viewBox="0 0 467.1 170.21"><defs><style>.a{fill:#ffb110;}.b{fill:#fff;}</style></defs><title>atom</title><path class="a" d="M23.55,0S0,4.61,0,27.88V170.21s2.62-28.67,23.55-28.67H467.1L421.86,68.25,467.1,0H23.55Z"/><path class="b" d="M49.85,46.23h7.83v42.7H70.56v7.12H49.85V46.23Z"/><path class="b" d="M83.22,67.23H94v7.12H83.22V88.93H96.75v7.12H75.4V46.23H96.75v7.12H83.22V67.23Z"/><path class="b" d="M128.35,96.05h-7.9l-1.35-9h-9.61l-1.35,9h-7.19l8-49.82h11.46Zm-17.86-15.8H118l-3.77-25.19Z"/><path class="b" d="M149.77,96.05c-0.43-1.28-.71-2.06-0.71-6.12V82.1c0-4.63-1.57-6.33-5.12-6.33h-2.7V96.05H133.4V46.23h11.81c8.11,0,11.6,3.77,11.6,11.46v3.91c0,5.12-1.64,8.47-5.12,10.11,3.91,1.64,5.19,5.41,5.19,10.6V90a14.66,14.66,0,0,0,.85,6h-8Zm-8.54-42.7v15.3h3.06c2.92,0,4.7-1.28,4.7-5.27V58.48c0-3.56-1.21-5.12-4-5.12h-3.77Z"/><path class="b" d="M170.41,60V96.05h-7V46.23h9.82l8,29.82V46.23h7V96.05h-8Z"/><path class="b" d="M195.25,46.23h7.83V96.05h-7.83V46.23Z"/><path class="b" d="M217.17,60V96.05h-7V46.23h9.82l8,29.82V46.23h7V96.05h-8Z"/><path class="b" d="M253.75,68.3h11V84.1c0,8-4,12.53-11.67,12.53s-11.67-4.55-11.67-12.53V58.19c0-8,4-12.53,11.67-12.53s11.67,4.55,11.67,12.53V63h-7.4V57.69c0-3.56-1.57-4.91-4.06-4.91s-4.06,1.35-4.06,4.91v26.9c0,3.56,1.57,4.84,4.06,4.84s4.06-1.28,4.06-4.84V75.41h-3.56V68.3Z"/><path class="b" d="M304,58.55V65c0,8-3.84,12.31-11.67,12.31h-3.7V96.05h-7.83V46.23h11.53C300.15,46.23,304,50.58,304,58.55Zm-15.37-5.2V70.22h3.7c2.49,0,3.84-1.14,3.84-4.7V58c0-3.56-1.35-4.7-3.84-4.7h-3.7Z"/><path class="b" d="M309,46.23h7.83v42.7h12.88v7.12H309V46.23Z"/><path class="b" d="M361.36,96.05h-7.9l-1.35-9H342.5l-1.35,9H334l8-49.82h11.46Zm-17.86-15.8H351l-3.77-25.19Z"/><path class="b" d="M373.38,60V96.05h-7V46.23h9.82l8,29.82V46.23h7V96.05h-8Z"/></svg>