<?xml version="1.0" encoding="utf-8"?>
<!-- Generator: Adobe Illustrator 19.1.0, SVG Export Plug-In . SVG Version: 6.00 Build 0)  -->
<svg version="1.1" xmlns="http://www.w3.org/2000/svg" xmlns:xlink="http://www.w3.org/1999/xlink" x="0px" y="0px"
	 viewBox="0 0 1024 250" style="enable-background:new 0 0 1024 250;" xml:space="preserve">
<style type="text/css">
	.st0{fill:#008AC2;}
	.st1{fill:#013444;}
	.st2{clip-path:url(#SVGID_2_);}
	.st3{fill:#FFFFFF;}
	.st4{fill:#221E1F;}
	.st5{fill:#F8A31F;}
	.st6{fill:none;stroke:#42291B;stroke-width:1.25;}
	.st7{fill:none;stroke:#42291B;stroke-width:5.05;}
	.st8{fill:#604B44;}
	.st9{fill:none;stroke:#42291B;stroke-width:0.985;}
	.st10{fill:#42291B;}
	.st11{font-family:'CenturyGothic';}
	.st12{font-size:122.3414px;}
	.st13{letter-spacing:-12;}
	.st14{font-size:85.9641px;}
	.st15{letter-spacing:-8;}
	.st16{letter-spacing:-5;}
	.st17{fill:#FBA500;}
	.st18{clip-path:url(#SVGID_4_);}
	.st19{fill:#595959;}
	.st20{clip-path:url(#SVGID_6_);}
	.st21{clip-path:url(#SVGID_8_);}
	.st22{clip-path:url(#SVGID_10_);}
	.st23{clip-path:url(#SVGID_12_);}
	.st24{clip-path:url(#SVGID_14_);}
	.st25{clip-path:url(#SVGID_16_);}
	.st26{clip-path:url(#SVGID_18_);}
	.st27{clip-path:url(#SVGID_20_);}
	.st28{clip-path:url(#SVGID_22_);}
	.st29{clip-path:url(#SVGID_24_);}
	.st30{clip-path:url(#SVGID_26_);}
	.st31{clip-path:url(#SVGID_28_);}
	.st32{clip-path:url(#SVGID_30_);}
	.st33{clip-path:url(#SVGID_32_);}
	.st34{clip-path:url(#XMLID_14_);}
	.st35{fill:#D1D3D4;stroke:#595959;stroke-width:9;stroke-miterlimit:10;}
	.st36{fill:#9FC9EB;}
	.st37{fill:#A7C44D;}
	.st38{clip-path:url(#XMLID_15_);}
	.st39{fill:#595959;stroke:#E7DB41;stroke-width:40;stroke-linecap:square;stroke-miterlimit:10;}
	.st40{fill:none;stroke:#E7DB41;stroke-width:40;stroke-linecap:square;stroke-miterlimit:10;}
	.st41{fill-rule:evenodd;clip-rule:evenodd;fill:#E7DB41;stroke:#E7DB41;stroke-width:14;stroke-miterlimit:10;}
	.st42{clip-path:url(#XMLID_16_);}
	.st43{fill:#969696;stroke:#231F20;stroke-width:12;stroke-miterlimit:10;}
	.st44{fill:none;stroke:#231F20;stroke-width:12;stroke-miterlimit:10;}
	.st45{fill:#595959;stroke:#595959;stroke-miterlimit:10;}
	.st46{clip-path:url(#XMLID_17_);}
	.st47{clip-path:url(#XMLID_18_);}
	.st48{fill:none;stroke:#595959;stroke-width:40;stroke-miterlimit:10;}
	.st49{clip-path:url(#XMLID_19_);fill:none;stroke:#D9689B;stroke-width:40;stroke-miterlimit:10;}
	.st50{clip-path:url(#XMLID_19_);}
	.st51{fill:#D9689B;}
	.st52{clip-path:url(#XMLID_20_);}
	.st53{fill:#D3EB8C;}
	.st54{clip-path:url(#XMLID_20_);fill:#D3EB8C;}
	.st55{clip-path:url(#XMLID_21_);}
	.st56{fill:#591777;}
	.st57{clip-path:url(#XMLID_22_);}
	.st58{fill:#969696;stroke:#333333;stroke-width:20;stroke-miterlimit:10;}
	.st59{clip-path:url(#XMLID_23_);}
	.st60{fill:#33669A;}
	.st61{clip-path:url(#SVGID_34_);fill:#33669A;}
	.st62{clip-path:url(#XMLID_24_);}
	.st63{fill-rule:evenodd;clip-rule:evenodd;fill:none;stroke:#9B601D;stroke-width:5;stroke-miterlimit:10;}
	.st64{fill-rule:evenodd;clip-rule:evenodd;fill:#9B601D;stroke:#9B601D;stroke-width:5;stroke-miterlimit:10;}

		.st65{clip-path:url(#XMLID_25_);fill-rule:evenodd;clip-rule:evenodd;fill:#9FC9EB;stroke:#9FC9EB;stroke-width:9;stroke-miterlimit:10;}
</style>
<g id="Layer_28">
	<g>
		<path class="st0" d="M3,248c-0.5,0-1-0.5-1-1V3c0-0.5,0.5-1,1-1h1018c0.5,0,1,0.5,1,1v244c0,0.5-0.5,1-1,1H3z"/>
		<path class="st1" d="M1020,4v242H4V4H1020 M1021,0H3C1.4,0,0,1.4,0,3v244c0,1.6,1.4,3,3,3h1018c1.6,0,3-1.4,3-3V3
			C1024,1.4,1022.6,0,1021,0L1021,0z"/>
	</g>
	<g>
		<defs>
			<path id="SVGID_1_" d="M1062,250H44c-1.6,0-3-1.4-3-3V3c0-1.6,1.4-3,3-3h1018c1.7,0,3,1.4,3,3v244
				C1065,248.6,1063.7,250,1062,250z"/>
		</defs>
		<clipPath id="SVGID_2_">
			<use xlink:href="#SVGID_1_"  style="overflow:visible;"/>
		</clipPath>
		<g id="layer1_15_" class="st2">
			<path id="path3921_15_" class="st3" d="M31.3,110.3c0.1,0,9.9,2.5,27.1,10.9c15.5,7.6,25.6,15.6,25.7,15.6l2.3-2.9
				c-0.4-0.3-10.4-8.3-26.3-16.1c-17.7-8.6-27.4-11-27.8-11.1L31.3,110.3"/>
			<path id="path3925_15_" class="st3" d="M33.6,153.8c0.7,0.1,18,2.3,26.2,2.1l24.1-1.7l-0.3-3.6l-23.8,1.7
				c-7.9,0.2-25.5-2.1-25.6-2.1L33.6,153.8"/>
			<path id="path3929_15_" class="st3" d="M372.6,132c-9.9,3.1-29.5,5.5-29.7,5.6l0.5,3.6c0.8-0.1,20.1-2.5,30.4-5.7
				c12.1-3.7,20.4-10.4,20.7-10.7l-2.3-2.8C392,122,384,128.4,372.6,132"/>
			<path id="path3933_15_" class="st3" d="M343.4,166.9c0.5,0.2,12,5.4,24.3,7c12,1.6,20.2,1.2,20.5,1.2l-0.2-3.7
				c-0.1,0-8.2,0.4-19.8-1.2c-11.7-1.6-23.2-6.7-23.3-6.7L343.4,166.9"/>
			<path id="path3937_15_" class="st3" d="M366.9,149.5c-3-16.4-15.2-27.1-25-33.2c-3.8-2.4-7.4-4.2-10-5.4
				c-0.7-7.5-3.3-23.6-13.4-42.4c-7.2-13.4-28.5-31.5-34.8-36.7c-0.8-4-12.4-59.1-12.4-59.1s-0.4,0.4-0.4,0.4c0-0.1-0.2-0.8-0.2-0.8
				S232.5,6.6,230.2,8.6c-2.5,0.6-15.4,3.5-17,3.8c-7.2-0.8-13.8-1.2-20.1-1.1c-16.8,0.2-33,3.9-39.5,5.6
				c-4.4-3.1-51.9-36.1-51.9-36.1c0,0.1-0.5-0.3-0.5-0.3l-11-7.8c0,0,7.2,88.8,7.6,93.4c-6.7,8.7-27.6,38.7-27.6,72.6
				c0,12.1,2.7,24.8,9.7,37.1c9.3,16.4,22.3,30.2,38.7,41.2c-9,2.8-16.6,9-24.5,15.6l-8.1,6.5c-1.9,1.5-4.1,2.8-6.4,4.2
				c-7.1,4.4-16.4,10.2-16.4,22.1c0,2,0.3,4.1,0.8,6.5c0.7,2.8,2.2,8.5,4.8,15.2c-6.8-2.7-12.7-6.5-17.7-11.3
				c-8.5-8.3-14.8-18.7-20.2-28c-4.4-7.5-8.3-14-12.8-18.5c-7.8-7.6-15.4-6.3-20.3-3.8c-8.8,4.4-14.2,16.4-14.2,31.2
				c0,1.1,0,2.1,0.1,3.2c1.1,21.6,14.3,49.2,48,61.7c8.5,3.2,16.7,5,24.5,6.1c-3.9,1.3-7.3,2.3-9.5,3c-4.8-2.5-15.1-6.1-26.3,0.6
				c-9.6,5.7-10.5,19.4-2.7,37.5c9.4,21.8,32.9,51.5,53,45.8c9.2-2.6,15.1-7.3,17.6-14c0.9-2.4,1.3-4.8,1.3-7.3
				c0-8.3-4.4-16.7-8.2-23c27.8-8.1,55.1-23.9,65.2-30c7,6.8,13.8,13.7,20.3,20.6c20.2,21.5,49.9,47.3,51.1,48.4l1.4,1.2l1.8,0.3
				c1.2,0.2,29.6,4.5,53.8,5.4c25.6,1,36.3-1.8,38.3-10.2c2.4-10,0.9-18.5-4.2-25.3c-7.3-9.6-21.5-14.8-42.2-15.7
				c-8.8-0.4-16.6,0.2-20.6,0.6c-12-11-21.2-19.6-26.1-24.2c-5.6-5.3-14.6-14.5-26.6-27.1c4.3-4,8.8-9.4,14.5-17.2
				c1.1-1.6,2.3-3.4,3.6-5.6c2.7,2,7.1,5.8,13.4,12.6c7.9,8.5,16,12.5,24.7,12.4c7.3-0.1,14-3.2,20.5-6.1l0.6-0.3
				c8.2-3.7,34.8-17.1,37.8-34.3c0.8-4.4,0.3-11.1-6.2-17.5c-5.1-4.9-10.2-7.6-15.5-8.1c-8.5-0.8-15.5,4.2-21.7,8.7
				c-4,2.9-7.8,5.6-11.7,6.8c-1.2,0.4-2.4,0.6-3.4,0.6c-4.9,0-8.5-4.5-13.5-11.4c-1.8-2.5-3.6-5.1-5.7-7.2c-1.1-1.1-2.1-2.2-3.2-3.2
				c11.6-0.4,23.4-1.5,35.3-3.3c54.2-8.8,79.9-30.9,92-47.9c8.2-11.5,12.5-24.3,12.5-36C367.6,154.7,367.4,152,366.9,149.5"/>
			<path id="path3941_15_" class="st4" d="M366.9,149.5c-3-16.4-15.2-27.1-25-33.2c-3.8-2.4-7.4-4.2-10-5.4
				c-0.7-7.5-3.3-23.6-13.4-42.4c-7.2-13.4-28.5-31.5-34.8-36.7c-0.8-4-12.4-59.1-12.4-59.1s-0.4,0.4-0.4,0.4c0-0.1-0.2-0.8-0.2-0.8
				S232.5,6.6,230.2,8.6c-2.5,0.6-15.4,3.5-17,3.8c-7.2-0.8-13.8-1.2-20.1-1.1c-16.8,0.2-33,3.9-39.5,5.6
				c-4.4-3.1-51.9-36.1-51.9-36.1c0,0.1-0.5-0.3-0.5-0.3l-11-7.8c0,0,7.2,88.8,7.6,93.4c-6.7,8.7-27.6,38.7-27.6,72.6
				c0,12.1,2.7,24.8,9.7,37.1c9.3,16.4,22.3,30.2,38.7,41.2c-9,2.8-16.6,9-24.5,15.6l-8.1,6.5c-1.9,1.5-4.1,2.8-6.4,4.2
				c-7.1,4.4-16.4,10.2-16.4,22.1c0,2,0.3,4.1,0.8,6.5c0.7,2.8,2.2,8.5,4.8,15.2c-6.8-2.7-12.7-6.5-17.7-11.3
				c-8.5-8.3-14.8-18.7-20.2-28c-4.4-7.5-8.3-14-12.8-18.5c-7.8-7.6-15.4-6.3-20.3-3.8c-8.8,4.4-14.2,16.4-14.2,31.2
				c0,1.1,0,2.1,0.1,3.2c1.1,21.6,14.3,49.2,48,61.7c8.5,3.2,16.7,5,24.5,6.1c-3.9,1.3-7.3,2.3-9.5,3c-4.8-2.5-15.1-6.1-26.3,0.6
				c-9.6,5.7-10.5,19.4-2.7,37.5c9.4,21.8,32.9,51.5,53,45.8c9.2-2.6,15.1-7.3,17.6-14c0.9-2.4,1.3-4.8,1.3-7.3
				c0-8.3-4.4-16.7-8.2-23c27.8-8.1,55.1-23.9,65.2-30c7,6.8,13.8,13.7,20.3,20.6c20.2,21.5,49.9,47.3,51.1,48.4l1.4,1.2l1.8,0.3
				c1.2,0.2,29.6,4.5,53.8,5.4c25.6,1,36.3-1.8,38.3-10.2c2.4-10,0.9-18.5-4.2-25.3c-7.3-9.6-21.5-14.8-42.2-15.7
				c-8.8-0.4-16.6,0.2-20.6,0.6c-12-11-21.2-19.6-26.1-24.2c-5.6-5.3-14.6-14.5-26.6-27.1c4.3-4,8.8-9.4,14.5-17.2
				c1.1-1.6,2.3-3.4,3.6-5.6c2.7,2,7.1,5.8,13.4,12.6c7.9,8.5,16,12.5,24.7,12.4c7.3-0.1,14-3.2,20.5-6.1l0.6-0.3
				c8.2-3.7,34.8-17.1,37.8-34.3c0.8-4.4,0.3-11.1-6.2-17.5c-5.1-4.9-10.2-7.6-15.5-8.1c-8.5-0.8-15.5,4.2-21.7,8.7
				c-4,2.9-7.8,5.6-11.7,6.8c-1.2,0.4-2.4,0.6-3.4,0.6c-4.9,0-8.5-4.5-13.5-11.4c-1.8-2.5-3.6-5.1-5.7-7.2c-1.1-1.1-2.1-2.2-3.2-3.2
				c11.6-0.4,23.4-1.5,35.3-3.3c54.2-8.8,79.9-30.9,92-47.9c8.2-11.5,12.5-24.3,12.5-36C367.6,154.7,367.4,152,366.9,149.5"/>
			<path id="path3945_15_" class="st5" d="M262.1,235.1c82-13.2,103.1-59.5,98.7-84.5c-4.5-25-34.9-35.3-34.9-35.3
				s0.3-19.5-12.9-43.8c-7.8-14.5-35-36.2-35-36.2l-10.6-50.6l-33.5,30.1L215.1,19c-6.7-0.9-14.2-1.5-21.9-1.4
				c-20.6,0.2-40.7,6.1-40.7,6.1L98.2-14l6.7,82.5c3-3.3-47.8,53.9-18.9,104.6c13.6,23.8,35.2,41.7,62.6,52.8l-2,1.7
				c-1.5-1.1-3.4-2.2-5.8-3.2c-21.6-8.6-32.9,5.8-50.8,19.7c-9.7,7.5-23.5,10.9-19.7,26.3c1.5,6,4.7,16.3,9.9,25.9l-0.5,0.3
				c-10.4-2-22.6-6.5-32.8-16.3C24,258.1,17.7,222.7,0.6,231.1c-17.1,8.5-18.8,65.3,33.3,84.7c17.9,6.7,34.5,7.3,47.9,7.5l0-0.4
				l11.2-5.2c-2.9,1.8-7.3,4.3-13.5,7.3l-15.3,5.8l-0.5,1.1c-9.1,3.4-17.9,5.8-17.9,5.8s-10.5-7.8-22.1-0.8
				c-19.1,11.5,21.9,78.5,45.4,71.8c28.4-8,6.5-35.1,2.4-42.1c36.2-8.2,75.7-33.9,75.7-33.9l-0.6,0.2l0.9-0.5
				c7,6.7,15.3,14.9,24.1,24.3c20.2,21.5,50.6,47.9,50.6,47.9s82.1,12.5,85,0c9.9-42.2-63.1-32.3-63.1-32.3s-19.4-17.8-28.3-26.2
				c-7.9-7.5-20.9-21.1-31.2-32.1l0.8-1c5.2-3.8,10.6-10,17.5-19.6c2.3-3.2,4.7-7.4,6.8-11.5l0,1.2c0,0,5.3,0.9,20,16.7
				c14.7,15.8,25.9,10.3,38.6,4.5c12.7-5.8,46.7-25,29.7-41.6c-17-16.7-27.2,4-42.6,8.9c-15.4,4.9-21.6-11.6-29.1-19.7
				c-6.4-7-13.2-11.3-15.1-12.4l0.2-1.3C227.4,239,244.3,238,262.1,235.1"/>
			<path id="path3949_15_" class="st3" d="M2.4,231.3c-10.4,1.9-15.2,21.6-11.3,37.2c3.8,15.6,8.6,26.1,16.2,31.9
				c7.5,5.8-1.4-13.3,8.1-20.7c9.5-7.4,25.6-3.1,25.6-3.1s-12.3-18.1-19.2-29.1C14.8,236.6,12.4,229.5,2.4,231.3"/>
			<path id="path3957_15_" class="st3" d="M169.2,135.2c0,0-36.8,2.7-38.9,25c-5.3,56,87.2,78.3,87.2,78.3s43.7,3.2,84-16
				c40.4-19.2,64-43.2,58.6-71.4c-5.4-28.2-39.8-35.3-39.8-35.3l-8.7-11l-40,10.1c0,0-0.5,14.9-19.7,18.3
				c-19.1,3.4-48.3-11.7-48.3-11.7L169.2,135.2"/>
			<path id="path3961_15_" class="st6" d="M233.3,14.4l33.5-30.1l10.6,50.6c0,0,27.2,21.7,35,36.2c13.2,24.3,12.9,43.8,12.9,43.8
				s30.4,10.3,34.9,35.3c4.5,25-16.6,71.2-98.7,84.5c-82,13.2-147-11.3-176-62c-28.9-50.7,21.8-108,18.9-104.7l-6.7-82.5l63.8,45"/>
			<path id="path3965_15_" class="st6" d="M238.3,23.2c0,0-22.2-6.2-45.7-6c-20.6,0.2-40.7,6.1-40.7,6.1"/>
			<path id="path3969_15_" class="st3" d="M198.2,81.7c12,19.9,9.8,43.2-4.8,52.1c-14.7,8.8-36.3-0.1-48.3-20.1
				c-12-19.9-9.8-43.2,4.8-52.1C164.5,52.8,186.2,61.8,198.2,81.7"/>
			<path id="path3973_15_" class="st7" d="M198.2,81.7c12,19.9,9.8,43.2-4.8,52.1c-14.7,8.8-36.3-0.1-48.3-20.1
				c-12-19.9-9.8-43.2,4.8-52.1C164.5,52.8,186.2,61.8,198.2,81.7z"/>
			<path id="path3977_15_" class="st3" d="M302.8,71.3c12,19.9,11.7,42.1-0.7,49.6c-12.4,7.5-32.2-2.6-44.2-22.5
				c-12-19.9-11.7-42.1,0.7-49.6C271,41.3,290.8,51.4,302.8,71.3"/>
			<path id="path3981_15_" class="st7" d="M302.8,71.3c12,19.9,11.7,42.1-0.7,49.6c-12.4,7.5-32.2-2.6-44.2-22.5
				c-12-19.9-11.7-42.1,0.7-49.6C271,41.3,290.8,51.4,302.8,71.3L302.8,71.3z"/>
			<path id="path3985_15_" class="st4" d="M185.3,109.8c-0.1,3.6-2.9,6.5-6.2,6.3c-3.3-0.1-5.9-3.2-5.8-6.8c0.1-3.6,2.9-6.4,6.2-6.3
				C182.9,103.2,185.4,106.2,185.3,109.8"/>
			<path id="path3989_15_" class="st4" d="M295.7,99.6c-0.1,3.6-2.9,6.5-6.3,6.3c-3.3-0.1-5.9-3.1-5.8-6.7c0.1-3.6,3-6.5,6.3-6.3
				C293.3,93,295.8,96,295.7,99.6"/>
			<path id="path3993_15_" class="st8" d="M248.4,124c8.1,0.3,19.9-0.5,20.3,3.2c0.5,3.7-8.1,18-13.7,18.4
				c-5.6,0.4-26.2-11.2-26.3-18C228.7,120.8,241,123.7,248.4,124"/>
			<path id="path3997_15_" class="st9" d="M248.4,124c8.1,0.3,19.9-0.5,20.3,3.2c0.5,3.7-8.1,18-13.7,18.4
				c-5.6,0.4-26.2-11.2-26.3-18C228.7,120.8,241,123.7,248.4,124L248.4,124z"/>
			<path id="path4001_15_" class="st7" d="M85.2,135.4c0,0-10.1-8.1-26-15.9c-17.7-8.6-27.5-11-27.5-11"/>
			<path id="path4005_15_" class="st7" d="M33.9,152c0,0,17.8,2.3,25.9,2.1c8.1-0.2,24-1.7,24-1.7"/>
			<path id="path4009_15_" class="st7" d="M112,273.5c0,0,12-8.6,22.8-16c10.9-7.4,27.5-24.5,5.9-33.1c-21.6-8.6-32.9,5.8-50.8,19.7
				c-9.7,7.5-23.5,10.9-19.8,26.3c3.8,15.4,19,59,49.6,46c30.6-13-6.4-40.1-11.5-48.9"/>
			<path id="path4013_15_" class="st9" d="M210.7,239.5c0,0,8.1,4.6,15.6,12.7c7.5,8.1,13.7,24.6,29.1,19.7
				c15.4-4.9,25.6-25.6,42.6-8.9c17,16.7-17,35.8-29.7,41.6c-12.7,5.8-23.9,11.2-38.6-4.5c-14.7-15.8-20-16.7-20-16.7"/>
			<path id="path4033_15_" class="st9" d="M79.9,296.7c-10.5-2-22.8-6.5-33.1-16.4c-22.9-22.2-29.2-57.6-46.3-49.2
				c-17.1,8.5-18.8,65.3,33.3,84.7c17.9,6.7,34.5,7.3,48,7.5"/>
			<path id="path4037_15_" class="st7" d="M343,139.3c0,0,19.9-2.5,30.1-5.6c11.9-3.7,20.1-10.3,20.1-10.3"/>
			<path id="path4041_15_" class="st7" d="M344.1,165.3c0,0,11.7,5.2,23.8,6.9c12,1.6,20.2,1.2,20.2,1.2"/>
			<path id="path4045_15_" class="st7" d="M190.8,153.7c0,0,44.5,14.9,61.2,19.2c16.7,4.2,46.8,9,46.8,9s-36.3,43.2-76.4,30.5
				C182.2,199.6,183.9,174.1,190.8,153.7z"/>
		</g>
	</g>
	<g>
		<path class="st1" d="M1020,4v242H4V4H1020 M1021,0H3C1.4,0,0,1.4,0,3v244c0,1.6,1.4,3,3,3h1018c1.6,0,3-1.4,3-3V3
			C1024,1.4,1022.6,0,1021,0L1021,0z"/>
	</g>
	<text transform="matrix(1 0 0 1 430 130)" class="st11 st12 st13">SCRATCH</text>
	<text transform="matrix(1.025 0 0 1 430 207)" class="st11 st14 st15">CHALLENGES</text>
</g>
<g id="Layer_18">
</g>
<g id="Layer_27">
</g>
<g id="Layer_19">
</g>
<g id="Layer_20">
</g>
<g id="Layer_21">
</g>
<g id="Layer_22">
</g>
<g id="Layer_23">
</g>
<g id="Layer_24">
</g>
<g id="Layer_25">
</g>
<g id="Layer_26">
</g>
<g id="Layer_17">
</g>
<g id="Layer_16">
</g>
<g id="Layer_15">
</g>
<g id="Layer_14">
</g>
<g id="Layer_13">
</g>
<g id="Layer_12">
</g>
<g id="Layer_11">
</g>
<g id="Layer_10">
</g>
<g id="Layer_8">
</g>
<g id="Layer_9">
</g>
<g id="Layer_7">
</g>
<g id="Layer_6">
</g>
<g id="Layer_5">
</g>
<g id="Layer_4">
</g>
<g id="Layer_3">
</g>
<g id="Layer_2">
</g>
<g id="Layer_1">
</g>
</svg>
